<?xml version="1.0" encoding="UTF-8" standalone="no"?>
<!-- Created with Inkscape (http://www.inkscape.org/) -->
<svg xmlns:inkscape="http://www.inkscape.org/namespaces/inkscape" xmlns:rdf="http://www.w3.org/1999/02/22-rdf-syntax-ns#" xmlns="http://www.w3.org/2000/svg" xmlns:xlink="http://www.w3.org/1999/xlink" xmlns:ns1="http://sozi.baierouge.fr" xmlns:cc="http://creativecommons.org/ns#" xmlns:sodipodi="http://sodipodi.sourceforge.net/DTD/sodipodi-0.dtd" xmlns:dc="http://purl.org/dc/elements/1.1/" id="svg2" xml:space="preserve" viewBox="0 0 35.028 24.475" version="1.1" inkscape:version="0.91 r13725">
  <g id="g10" transform="matrix(1.25 0 0 -1.25 0 24.475)">
    <g id="g12">
      <path id="path14" style="fill-rule:evenodd;fill:#d0b379" d="m27.609 16.998c-1.093-0.664-1.945-1.199-2.558-1.598v0.039h-0.039l-0.043-0.078c-0.106-0.082-0.211-0.148-0.321-0.203v0.043l-0.078-0.082c-0.082 0.133-0.175 0.254-0.281 0.36l-0.078 0.082 0.801 0.48c0.586 0.184 0.933 0.371 1.039 0.559 0.078 0.16 0.051 0.281-0.082 0.359-0.239 0.16-0.36 0.254-0.36 0.281l0.961 0.078h0.078c0.454-0.05 0.774-0.16 0.961-0.32zm-11.64 0.281c-0.239 0.028-0.465 0.055-0.68 0.082 0.293 0.184 0.547 0.332 0.762 0.438l0.398 0.281 0.239 0.078 0.402-0.199c-0.106-0.211-0.172-0.332-0.199-0.359-0.106-0.078-0.414-0.188-0.922-0.321zm-3.039-1.398v-0.121c-0.051 0-0.121-0.012-0.2-0.039 0.079 0.054 0.145 0.105 0.2 0.16zm10.039-0.961c0.265-0.133 0.492-0.293 0.679-0.481-0.773-0.558-1.679-1.093-2.718-1.597-0.16 0.051-0.211 0.133-0.16 0.238 0.027 0.051 0.16 0.145 0.402 0.281 0.371 0.211 0.613 0.399 0.719 0.559 0.132 0.16 0.16 0.254 0.078 0.281-0.157 0.051-0.25 0.094-0.278 0.117 0.051 0.11 0.184 0.188 0.399 0.243l0.48 0.16c0.055 0.027 0.188 0.093 0.399 0.199zm-11 2.84c0.082 0.027 0.148 0.066 0.199 0.121l1.043 0.32 0.598 0.321c0.214 0.05 0.574 0.05 1.082 0h0.238c-0.453-0.243-0.984-0.563-1.598-0.961l-1.562 0.199zm-2.321-0.84 1.922-0.238c0.028-0.055 0.067-0.121 0.121-0.203 0.024-0.024 0.079-0.051 0.161-0.079-0.618-0.425-1.137-0.828-1.563-1.199h-1.121c-0.531-0.027-0.84 0.024-0.918 0.16-0.027 0.024-0.039 0.145-0.039 0.36l-0.082 0.801c-0.027 0.16-0.012 0.253 0.039 0.277 0.027 0.027 0.109 0.043 0.242 0.043l1.238 0.078zm6.043-3.16-1.281 0.281c-0.242 0.051-0.375 0.094-0.398 0.117l0.039 0.641c0.238 0.027 0.894-0.024 1.961-0.16l0.476-0.438c-0.32-0.293-0.586-0.441-0.797-0.441zm-10.601 1.601c-0.106 0.184-0.028 0.278 0.238 0.278l1.442-0.16c0.16-0.051 0.281-0.04 0.359 0.043l-0.32-0.403c-0.184-0.078-0.387-0.121-0.598-0.121-0.082 0-0.227 0.043-0.441 0.121-0.055 0-0.172 0.028-0.36 0.082-0.215 0.078-0.32 0.133-0.32 0.16z" inkscape:connector-curvature="0"/>
      <path id="path16" style="fill-rule:evenodd;fill:#b99e64" d="m23.25 16.158c-0.348 0.11-2.375 0.414-6.082 0.922 0.109 0.078 0.242 0.16 0.402 0.238 0.426 0.161 0.641 0.321 0.641 0.481 0.023 0.082-0.016 0.199-0.121 0.359-0.133 0.16-0.199 0.281-0.199 0.364h0.199l6.84-1.043 0.48-0.079-1.84-0.921-0.32-0.321zm-6.238-0.16 3.519-0.437c0.453-0.055 0.852-0.133 1.199-0.243l-0.281-0.16c-0.426-0.453-0.773-0.719-1.039-0.797-0.109-0.054-0.32-0.027-0.64 0.078-0.801 0.454-1.415 0.786-1.84 1-0.293 0.161-0.602 0.348-0.918 0.559zm-5.321-1.117c0.399 0.133 0.637 0.211 0.719 0.238l1.16 0.199c0.106-0.613 0.012-1.144-0.281-1.597l-0.199-0.16-2.559 0.359c0.211 0.215 0.504 0.465 0.879 0.762 0.078 0.078 0.172 0.144 0.281 0.199zm-2.761-0.723-0.121 0.043h0.359c-0.027-0.004-0.066-0.027-0.117-0.082l-0.121 0.039zm3.8 4.922c-0.32-0.16-0.761-0.426-1.32-0.801-0.242-0.105-0.547-0.121-0.922-0.039-0.426 0.106-0.73 0.188-0.918 0.239-0.508 0.109-0.828 0.226-0.961 0.363l0.321 0.117 0.199 0.16 0.359 0.082c0.348 0 0.574 0.012 0.68 0.039h0.082l1.16 0.039 1.399-0.121-0.079-0.078zm3.282-3.558c-0.082-0.27-0.309-0.364-0.684-0.282-0.266 0.055-0.398 0.172-0.398 0.36 0.027 0.398 0.347 0.464 0.961 0.199l0.121-0.277zm-9.282 0.636c0.348 0.11 0.614 0.16 0.801 0.16l0.36-0.32c-0.188-0.184-0.403-0.277-0.641-0.277-0.586 0-0.895 0.011-0.922 0.039-0.133 0.133 0 0.265 0.402 0.398z" inkscape:connector-curvature="0"/>
      <path id="path18" style="fill-rule:evenodd;fill:#c6a86c" d="m24.211 15.561c-0.293 0.293-0.613 0.492-0.961 0.597l0.32 0.321 1.84 0.921-0.48 0.079 0.84-0.118c0.292 0 0.558-0.015 0.8-0.043l-0.961-0.078c0-0.027 0.121-0.121 0.36-0.281 0.133-0.078 0.16-0.199 0.082-0.359-0.106-0.188-0.453-0.375-1.039-0.559l-0.801-0.48zm-11.121-2 0.199 0.16c0.293 0.453 0.387 0.984 0.281 1.597l-1.16-0.199c-0.082-0.027-0.32-0.105-0.719-0.238 0.399 0.371 0.747 0.652 1.039 0.84 0.079 0.027 0.145 0.039 0.2 0.039v0.121c0.105 0.078 0.215 0.144 0.32 0.199 0.188 0.106 0.359 0.215 0.52 0.32l3.242-0.402c0.316-0.211 0.625-0.398 0.918-0.559 0.425-0.214 1.039-0.546 1.84-1 0.32-0.105 0.531-0.132 0.64-0.078 0.266 0.078 0.613 0.344 1.039 0.797l0.281 0.16c0.508-0.105 0.918-0.238 1.239-0.398-0.211-0.106-0.344-0.172-0.399-0.199l-0.48-0.16c-0.215-0.055-0.348-0.133-0.399-0.243 0.028-0.023 0.118-0.066 0.278-0.117 0.082-0.027 0.054-0.121-0.078-0.281-0.106-0.16-0.348-0.348-0.719-0.559-0.242-0.136-0.375-0.23-0.402-0.281-0.051-0.105 0-0.187 0.16-0.238-0.051-0.028-0.106-0.055-0.16-0.082l-1.961 0.281h-0.879l-0.52 0.078c-0.558-0.027-0.972-0.027-1.242 0-0.984 0.16-1.719 0.266-2.199 0.32l-0.879 0.122zm4.078 3.519c-0.398 0.078-0.797 0.145-1.199 0.199 0.508 0.133 0.816 0.243 0.922 0.321 0.027 0.027 0.093 0.148 0.199 0.359l-0.402 0.199 0.523 0.242v0.079h0.039c0 0.054 0.012 0.109 0.039 0.16l0.719-0.117h-0.117c0-0.083 0.066-0.204 0.199-0.364 0.105-0.16 0.144-0.277 0.121-0.359 0-0.16-0.215-0.32-0.641-0.481-0.16-0.078-0.293-0.16-0.402-0.238zm-9.52 1.16c-0.05 0.106 0.016 0.199 0.204 0.282l0.757 0.32c0.133-0.137 0.453-0.254 0.961-0.363 0.188-0.051 0.492-0.133 0.918-0.239 0.375-0.082 0.68-0.066 0.922 0.039 0.559 0.375 1 0.641 1.32 0.801 0.879-0.055 1.879-0.148 3-0.281-0.187-0.051-0.386-0.145-0.601-0.277h-0.238c-0.508 0.05-0.868 0.05-1.082 0l-0.598-0.321-1.043-0.32c-0.051-0.055-0.117-0.094-0.199-0.121l-4.321 0.48zm4.204-1.84c-0.082 0.028-0.137 0.055-0.161 0.079-0.054 0.082-0.093 0.148-0.121 0.203l0.559-0.082c-0.106-0.055-0.199-0.121-0.277-0.2zm-5 0.879l2.796-0.359-1.238-0.078c-0.133 0-0.215-0.016-0.242-0.043-0.051-0.024-0.066-0.117-0.039-0.277l0.082-0.801c0-0.215 0.012-0.336 0.039-0.36 0.078-0.136 0.387-0.187 0.918-0.16h1.121c-0.371-0.293-0.691-0.574-0.961-0.84-0.023-0.054-0.078-0.109-0.16-0.16h-0.359l0.121-0.043c-0.239 0.055-0.465 0.094-0.68 0.121l-2.719 0.442c-0.086 0.015-0.168 0.031-0.242 0.039l-0.16 0.039-1.039 0.16c-0.188 0-0.375 0.055-0.559 0.16l-0.363 0.082c-0.316 0-0.492 0.024-0.52 0.078-0.05 0.082 0.082 0.16 0.403 0.243 0.265 0.078 0.48 0.117 0.64 0.117l0.598 0.121c0.375 0.105 0.922 0.387 1.641 0.84 0.16 0.082 0.414 0.175 0.761 0.281 0.211 0.051 0.293 0.16 0.239 0.32-0.02 0.039-0.047 0.067-0.078 0.078zm9.16-1.757-0.121 0.277c-0.614 0.265-0.934 0.199-0.961-0.199 0-0.188 0.132-0.305 0.398-0.36 0.375-0.082 0.602 0.012 0.684 0.282zm-0.321-1.762c0.211 0 0.481 0.148 0.797 0.441l-0.476 0.438c-1.067 0.136-1.723 0.187-1.961 0.16l-0.039-0.641c0.023-0.027 0.156-0.066 0.398-0.117l1.281-0.281zm-10.601 1.601c0-0.027 0.105-0.082 0.32-0.16 0.188-0.054 0.305-0.082 0.36-0.082 0.214-0.078 0.359-0.121 0.441-0.121 0.211 0 0.414 0.043 0.598 0.121l0.32 0.403c-0.078-0.083-0.199-0.094-0.359-0.043l-1.442 0.16c-0.266 0-0.344-0.094-0.238-0.278zm1.64 0.797c-0.402-0.133-0.535-0.265-0.402-0.398 0.027-0.028 0.336-0.039 0.922-0.039 0.238 0 0.453 0.093 0.641 0.277l-0.36 0.32c-0.187 0-0.453-0.05-0.801-0.16z" inkscape:connector-curvature="0"/>
      <path id="path20" style="fill-rule:evenodd;fill:#7e6b44" d="m27.168 8.842h0.082c0.078-0.028 0.281 0.09 0.602 0.359l-0.082-1.441v-0.438l0.082-0.281v-0.121l-0.204-0.559c-0.238-0.586-0.519-1.054-0.839-1.402-0.079-0.078-0.211-0.16-0.399-0.238-0.187-0.082-0.308-0.149-0.359-0.199-0.082-0.133-0.121-0.536-0.121-1.2l-0.559-0.562c0 0.105-0.016 0.199-0.039 0.281-0.137 1.066-0.203 2.199-0.203 3.398-0.184 4.215-0.277 6.75-0.277 7.602 0 0.293-0.055 0.574-0.161 0.84l0.278 0.48 0.043 0.078h0.039v-0.039c0-0.375-0.039-0.945-0.121-1.718v-0.282l0.402-7.878 0.078-0.481 0.082-1.641 0.199 0.239c0.133 0.215 0.2 0.519 0.2 0.922-0.028 0.453-0.039 0.785-0.039 1 0.398 0.023 0.707 0.199 0.918 0.519 0.292 0.371 0.425 0.746 0.402 1.117-0.535-0.023-0.922-0.011-1.16 0.043-0.028 0.133 0.078 0.344 0.32 0.637-0.055-0.133-0.055-0.238 0-0.316 0.211-0.508 0.547-0.309 1 0.597l-0.602 0.121h-0.039l0.079 0.082 0.398 0.481zm-2.238-6.524c-0.082-0.183-0.215-0.293-0.399-0.32h-0.043v0.16c-0.211-0.105-0.531-0.25-0.957-0.437-0.429-0.215-0.761-0.43-1-0.641-0.453-0.402-0.785-0.613-1-0.641-0.133-0.054-0.308-0.054-0.519 0h-0.043v0.122c-0.371 0.265-0.625 0.492-0.758 0.679-0.266 0.375-0.52 0.653-0.762 0.84-0.64 0.481-1.011 0.801-1.117 0.961l0.199-0.32c-0.48 0.426-0.906 0.758-1.281 1l-0.082 0.039-0.637 0.402h0.117c0.27 0.024 0.614-0.121 1.043-0.441l3.239-2.762 0.039-0.039v-0.078h0.082c0.293 0.105 0.519 0.277 0.679 0.519 0.161 0.184 0.493 0.426 1 0.719 0.454 0.293 0.774 0.559 0.961 0.801 0.239 0.293 0.399 0.48 0.481 0.558 0.078 0.051 0.187 0.051 0.32 0-0.054 1.52-0.133 2.852-0.242 4-0.078 4.028-0.199 6.227-0.359 6.602-0.055 0.133-0.133 0.266-0.239 0.398-0.187 0.188-0.414 0.348-0.683 0.481-0.317 0.16-0.731 0.293-1.239 0.398-0.347 0.106-0.746 0.188-1.199 0.243l-3.519 0.437-3.242 0.402c-0.161-0.105-0.332-0.214-0.52-0.32-0.105-0.055-0.215-0.121-0.32-0.199-0.055-0.055-0.121-0.106-0.2-0.16-0.292-0.188-0.64-0.469-1.039-0.84-0.109-0.055-0.203-0.121-0.281-0.199-0.375-0.297-0.668-0.551-0.879-0.762-0.269-0.215-0.441-0.375-0.519-0.481-0.028-0.027-0.043-0.066-0.043-0.121-0.133-0.343-0.145-1.437-0.039-3.277 0-0.215 0.015-0.441 0.039-0.68-0.028-0.242-0.028-0.789 0-1.64 0.027-0.481 0.054-1.055 0.082-1.723v-0.117l0.558 0.078 0.602 0.281-0.043-0.039 3.48 2 0.364 0.278c0.636 0.429 1.039 0.695 1.199 0.8l2.918 1.36c-0.211-0.211-0.852-0.785-1.918-1.719-0.481-0.426-0.883-0.691-1.199-0.801-0.696-0.211-1.11-0.453-1.242-0.719l-0.04-0.16c-0.054-0.187 0-0.414 0.161-0.679 0.027-0.028 0.039-0.051 0.039-0.082 0.16-0.293 0.254-0.493 0.281-0.598-0.535 0.293-0.922 0.519-1.16 0.68-0.453 0.238-0.867 0.281-1.242 0.121-0.532-0.293-0.934-0.469-1.2-0.52l-0.078-0.043-0.562-0.121-0.278-0.199c-0.242-0.106-0.457-0.184-0.64-0.238v-0.161c0-0.132 0.011-0.253 0.039-0.359v-0.402c0.027-0.426 0.055-0.813 0.078-1.16 0-0.454 0.016-0.813 0.043-1.079v-0.32c1.414-0.133 2.453-0.281 3.117-0.441 0.16-0.024 0.481-0.117 0.961-0.278 0.375-0.109 0.68-0.175 0.922-0.203 0.348-0.023 0.851-0.051 1.519-0.078l1.481-0.281c0.719-0.133 1.184-0.149 1.398-0.039 0.082 0.48-0.093 0.933-0.519 1.359l1.879-1.68 0.043-0.441c-0.27 0-0.524 0.043-0.762 0.121-0.531 0.028-0.918 0.067-1.16 0.121l-0.801 0.16-6 0.52c-0.293 0-0.945 0.078-1.961 0.238 0.027-0.027 0.043-0.051 0.043-0.078l-0.281-0.082c0 0.055 0.012 0.109 0.039 0.16-0.078 0-0.145 0.028-0.199 0.082-0.188 0.106-0.282 0.317-0.282 0.637v3.164c-0.023 0.078-0.023 0.156 0 0.238-0.023 0.106-0.023 0.2 0 0.282-0.023 0.105-0.023 0.214 0 0.32-0.023 0.664-0.023 1.226 0 1.68v1.8c0 0.078 0.016 0.305 0.043 0.68 0 0.398-0.015 0.945-0.043 1.641 0 0.879 0.028 1.437 0.082 1.679 0.028 0.051 0.04 0.094 0.04 0.118 0.082 0.109 0.253 0.269 0.519 0.48 0.188 0.215 0.453 0.469 0.801 0.762 0.027 0.027 0.055 0.054 0.078 0.078 0.457 0.402 0.844 0.723 1.16 0.961 0.215 0.187 0.414 0.332 0.602 0.441 0 0.024 0.015 0.039 0.039 0.039 0.426 0.293 0.816 0.547 1.16 0.758 0.559 0.375 1.016 0.668 1.359 0.883 0.348 0.211 0.641 0.371 0.883 0.48 0.371 0.161 0.652 0.2 0.84 0.118v-0.079l-0.52-0.242-0.242-0.078-0.398-0.281c-0.215-0.106-0.469-0.254-0.762-0.438-0.105-0.082-0.227-0.16-0.359-0.242-0.055-0.051-0.094-0.121-0.121-0.199 0-0.133 0.082-0.254 0.242-0.359l5.398-0.68c0.641-0.082 1.188-0.188 1.641-0.32 0.48-0.133 0.867-0.309 1.16-0.52 0.238-0.133 0.426-0.293 0.559-0.48 0.054-0.055 0.093-0.122 0.121-0.2 0.105-0.214 0.215-1.082 0.32-2.601 0.051-1.067 0.105-1.946 0.16-2.641 0.051-0.668 0.094-1.16 0.121-1.48 0.157-1.492 0.293-3.254 0.399-5.282v-0.039zm-15.282 14.602l-2.796 0.359h-0.043l-2.079 0.282-0.519 0.078h-0.043c0 0.109 0.027 0.203 0.082 0.281l8.238-1.039c-0.133-0.082-0.254-0.176-0.359-0.281l-0.559 0.082-1.922 0.238zm-5.32-11.641-1.277-0.8-0.199-0.04-1.043-0.238c-0.266-0.109-0.465-0.203-0.598-0.281-0.266-0.106-0.441-0.227-0.52-0.359-0.242-0.375 0.039-0.614 0.84-0.719 0.426-0.055 0.946-0.082 1.559-0.082l2.922-0.281c0.957-0.079 1.84-0.157 2.636-0.239v-0.398c0-0.16 0.028-0.309 0.082-0.442l-5.921 0.918c-1.332 0-2.161 0.082-2.481 0.243h-0.078l-0.039 1.121h0.039c0.586 0.398 0.973 0.652 1.16 0.757 0.375 0.188 0.719 0.293 1.039 0.321-0.238 0-0.426-0.012-0.558-0.039l0.718 0.359c0.293 0.16 0.735 0.305 1.321 0.442 0.609 0.156 1.05 0.289 1.32 0.398-0.141-0.059-0.449-0.273-0.922-0.641zm12.242 3.52c0.188 0.109 0.426 0.32 0.719 0.64 0.188 0.188 0.359 0.336 0.52 0.442l-3.879-2.32c-0.188-0.028-0.496-0.161-0.922-0.403-0.399-0.238-0.653-0.437-0.758-0.597 0.16 0.078 0.387 0.16 0.68 0.238 0.32 0.082 0.558 0.16 0.718 0.242 0.133 0.051 0.586 0.332 1.36 0.84l1.562 0.918zm-2.242 7.84h0.043c-0.027 0.054-0.043 0.093-0.043 0.121l-0.039-0.039c0 0.078 0.027 0.16 0.082 0.238 0.027 0.027 0.067 0.066 0.117 0.121h-0.078c-0.055-0.027-0.109-0.066-0.16-0.121-0.188-0.105-0.254-0.238-0.199-0.398 0.16 0 0.414-0.055 0.758-0.161h0.543c-0.161 0.004-0.29 0.016-0.383 0.039-0.371 0.055-0.586 0.122-0.641 0.2zm-10.398-7.039 0.601-0.68 0.278-0.238c-0.371 0.183-1.2 0.746-2.481 1.679-0.691 0.504-1.133 1.106-1.316 1.801-0.028 0.106-0.121 0.383-0.282 0.836l1.321-1.277c0.051-0.266 0.172-0.508 0.359-0.723l1.52-1.398zm-2.918-5.121c-0.403-0.321-0.657-0.52-0.762-0.598h-0.039v0.398h0.039c0.348 0.055 0.602 0.121 0.762 0.2z" inkscape:connector-curvature="0"/>
      <path id="path22" style="fill-rule:evenodd;fill:#685837" d="m24.648 15.158v-0.199c-0.023 0.055-0.05 0.094-0.078 0.121v0.039l0.078 0.082v-0.043zm2.801-10.117c-0.238-0.266-0.746-0.84-1.519-1.719 0 0.664 0.039 1.067 0.121 1.2 0.051 0.05 0.172 0.117 0.359 0.199 0.188 0.078 0.32 0.16 0.399 0.238 0.32 0.348 0.601 0.816 0.839 1.402l0.204 0.559v0.121c0.023-0.32 0.023-0.602 0-0.84-0.028-0.508-0.149-0.894-0.364-1.16h-0.039zm-2.961-3.043-0.136-0.137-0.024-0.019-0.476-0.403c-0.27-0.347-0.696-0.664-1.282-0.96-0.508-0.239-0.894-0.372-1.16-0.399-0.109-0.055-0.242-0.082-0.398-0.082l-0.043 0.441h0.043c0.211-0.05 0.383-0.05 0.519 0 0.211 0.028 0.547 0.243 1 0.641 0.239 0.215 0.571 0.426 1 0.641 0.426 0.187 0.746 0.332 0.957 0.441v-0.164zm1.84 5.883c0.027 0.051 0.149 0.183 0.36 0.398h0.042l0.598-0.117c-0.453-0.91-0.785-1.109-1-0.601-0.051 0.078-0.051 0.187 0 0.32z" inkscape:connector-curvature="0"/>
      <path id="path24" style="fill-rule:evenodd;fill:#917b4e" d="m24.648 14.959v0.199c0.11 0.055 0.215 0.121 0.321 0.203l-0.278-0.48c-0.027 0.027-0.043 0.051-0.043 0.078zm0.762-9.918 0.039-0.199c0-0.293 0.039-0.563 0.121-0.801 0.051 0.348 0.067 0.813 0.039 1.398-0.027 0.641-0.039 1.11-0.039 1.403v1.558c0.293 0.399 0.426 0.664 0.399 0.801-0.051 0.184-0.227 0.332-0.52 0.438l-0.117 0.242v-0.082l-0.16 1.199c-0.055 0.777-0.055 1.961 0 3.563-0.137-0.454-0.215-0.801-0.242-1.039v0.16c0.082 0.773 0.121 1.343 0.121 1.718 0.613 0.399 1.465 0.934 2.558 1.598 0.082-0.078 0.149-0.156 0.2-0.238h-0.039c0.027-0.293-0.106-0.52-0.399-0.68-0.16-0.082-0.414-0.199-0.762-0.359-0.238-0.16-0.332-0.426-0.281-0.801 0.242-0.078 0.52-0.094 0.84-0.039 0.109 0.027 0.227 0.133 0.363 0.32l0.481 0.598c0.015-0.473 0.015-1.18 0-2.117-0.137-0.457-0.336-0.828-0.602-1.121-0.32-0.375-0.492-0.602-0.519-0.68-0.028-0.106-0.067-0.375-0.121-0.801-0.051-0.348-0.133-0.601-0.239-0.762-0.027-0.05-0.148-0.132-0.359-0.238-0.188-0.082-0.281-0.16-0.281-0.238 0-0.11 0.121-0.242 0.359-0.403 0.051-0.05 0.094-0.144 0.121-0.281 0.106-0.105 0.293-0.172 0.559-0.199l0.238-0.117-0.398-0.481-0.079-0.082c-0.214-0.215-0.336-0.347-0.359-0.398-0.242-0.293-0.348-0.508-0.32-0.641 0.238-0.054 0.625-0.066 1.16-0.039 0.023-0.375-0.11-0.75-0.402-1.121-0.211-0.32-0.52-0.492-0.918-0.519 0-0.215 0.011-0.547 0.039-1 0-0.399-0.067-0.707-0.2-0.918l-0.199-0.243-0.082 1.641zm-4.558 4.199-0.122 1.961 0.04 0.039-0.082 1.121-0.04 0.321 0.122 0.078c0.05 0.027 0.105 0.054 0.16 0.082 1.039 0.504 1.945 1.039 2.718 1.597 0.106-0.132 0.188-0.265 0.239-0.398 0.16-0.375 0.281-2.574 0.363-6.602 0.105-1.148 0.184-2.48 0.238-4-0.133 0.055-0.238 0.055-0.32 0-0.078-0.078-0.238-0.265-0.48-0.558-0.188-0.242-0.504-0.508-0.958-0.801-0.507-0.293-0.843-0.531-1-0.719-0.16-0.242-0.386-0.414-0.683-0.519h-0.039c-0.028 0.32-0.039 0.719-0.039 1.199 0.32-0.133 0.558-0.16 0.719-0.082l0.96 1.441c0.184 0.161 0.305 0.282 0.36 0.36 0.133 0.133 0.148 0.254 0.039 0.359-0.027 0.028-0.199 0.11-0.52 0.242-0.558 0.321-1.078 0.719-1.558 1.2v1.32l-0.078 2.359h-0.039zm3.679-7.242c-0.07-0.047-0.133-0.09-0.183-0.137l0.14 0.137h0.043zm-0.922 8.121c-0.214-0.265-0.48-0.492-0.8-0.68-0.266-0.214-0.465-0.347-0.598-0.398l-0.32-0.121c-0.055-0.106-0.028-0.238 0.078-0.398 0.054-0.11 0.133-0.243 0.242-0.403 0.051-0.105 0.105-0.293 0.16-0.558 0.078-0.215 0.172-0.348 0.281-0.399 0.426-0.16 0.758 0.078 1 0.719 0.211 0.746 0.344 1.211 0.399 1.398l-0.082 1.403c-0.024-0.055-0.145-0.243-0.36-0.563zm2.321-6.801c0.773 0.883 1.281 1.454 1.519 1.723-0.187-0.242-0.558-0.684-1.121-1.32l-0.398-0.403z" inkscape:connector-curvature="0"/>
      <path id="path26" style="fill-rule:evenodd;fill:#dcc99a" d="m15.969 17.279c0.402-0.054 0.801-0.121 1.199-0.199 3.707-0.508 5.734-0.812 6.082-0.922 0.348-0.105 0.668-0.304 0.961-0.597 0.023-0.028 0.051-0.055 0.078-0.082 0.106-0.106 0.199-0.227 0.281-0.36v-0.039c0.028-0.027 0.051-0.066 0.078-0.121 0-0.027 0.016-0.051 0.043-0.078 0.106-0.266 0.161-0.547 0.161-0.84 0-0.855 0.093-3.387 0.277-7.602 0-1.199 0.066-2.332 0.203-3.398 0.023-0.082 0.039-0.176 0.039-0.281 0.051-0.481-0.094-0.719-0.441-0.719v0.32c-0.106 2.028-0.239 3.786-0.399 5.282-0.027 0.316-0.066 0.812-0.121 1.48-0.051 0.691-0.105 1.57-0.16 2.637-0.105 1.523-0.215 2.387-0.32 2.601-0.028 0.082-0.067 0.149-0.118 0.2-0.132 0.187-0.32 0.347-0.562 0.48-0.293 0.215-0.68 0.387-1.16 0.52-0.453 0.132-1 0.242-1.637 0.32l-5.402 0.68c-0.16 0.105-0.242 0.226-0.242 0.359 0.027 0.078 0.066 0.148 0.121 0.199 0.132 0.082 0.254 0.16 0.359 0.242 0.215-0.027 0.441-0.054 0.68-0.082zm-5.879-16.281c-0.133-0.211-0.32-0.316-0.559-0.316-0.242 0-0.441 0.117-0.601 0.359-0.078 0.106-0.145 0.227-0.2 0.359-0.054 0.133-0.082 0.282-0.082 0.442v0.398c-0.023 0.321-0.05 0.653-0.078 1v0.321c-0.027 0.347-0.039 0.707-0.039 1.078v2.883c0 1.066 0.012 2 0.039 2.8 0 1.946 0.028 3.051 0.078 3.321v0.039c0.028 0.132 0.122 0.265 0.282 0.398 0.054 0.027 0.093 0.039 0.121 0.039 0.051 0.055 0.094 0.078 0.117 0.082 0.082 0.051 0.137 0.106 0.16 0.16 0.27 0.266 0.59 0.547 0.961 0.84 0.426 0.371 0.945 0.774 1.563 1.199 0.078 0.079 0.171 0.145 0.277 0.2 0.105 0.105 0.226 0.199 0.359 0.281l-8.238 1.039-0.121 0.039c0 0.105 0.027 0.215 0.082 0.32 0.133 0.215 0.398 0.309 0.801 0.282l0.359-0.039 0.481-0.083 1.796-0.199 4.321-0.48 1.562-0.199c0.614 0.398 1.145 0.718 1.598 0.961 0.215 0.132 0.414 0.226 0.601 0.277 0.239 0.109 0.438 0.187 0.598 0.242 0.481 0.106 0.774 0.039 0.883-0.199 0.023-0.055 0.051-0.121 0.078-0.203-0.027-0.051-0.039-0.106-0.039-0.16h-0.039c-0.188 0.082-0.469 0.043-0.84-0.118-0.242-0.109-0.535-0.269-0.883-0.48-0.343-0.215-0.8-0.508-1.359-0.883-0.348-0.211-0.734-0.465-1.16-0.758-0.028 0-0.039-0.015-0.039-0.039-0.188-0.109-0.387-0.254-0.602-0.441-0.316-0.238-0.703-0.559-1.16-0.961-0.023-0.024-0.051-0.051-0.078-0.078-0.348-0.293-0.613-0.547-0.801-0.762-0.266-0.211-0.437-0.371-0.519-0.48 0-0.024-0.012-0.067-0.04-0.118-0.054-0.242-0.082-0.8-0.082-1.679 0.028-0.696 0.043-1.243 0.043-1.641-0.027-0.375-0.043-0.602-0.043-0.68v-1.8c-0.023-0.454-0.023-1.016 0-1.68-0.023-0.109-0.023-0.215 0-0.32-0.023-0.082-0.023-0.176 0-0.282-0.023-0.082-0.023-0.16 0-0.238v-3.164c0-0.316 0.094-0.531 0.282-0.637 0.054-0.054 0.121-0.082 0.199-0.082-0.027-0.051-0.039-0.105-0.039-0.16zm4.238 15.641-0.039 0.082 0.039 0.039c0-0.028 0.016-0.067 0.043-0.121h-0.043z" inkscape:connector-curvature="0"/>
      <path id="path28" style="fill-rule:evenodd;fill:#847148" d="m27.809 16.76 0.043-0.078c0.05-0.11 0.093-0.215 0.117-0.321l0.043-0.562-0.481-0.598c-0.136-0.187-0.254-0.293-0.363-0.32-0.316-0.055-0.598-0.039-0.84 0.039-0.051 0.375 0.043 0.641 0.281 0.801 0.348 0.16 0.602 0.277 0.762 0.359 0.293 0.16 0.426 0.387 0.399 0.68h0.039zm0.203-3.078-0.16-4.481c-0.321-0.269-0.52-0.387-0.602-0.359h-0.082l-0.238 0.117c-0.266 0.027-0.453 0.094-0.559 0.199-0.027 0.137-0.07 0.227-0.121 0.281-0.238 0.161-0.359 0.293-0.359 0.403 0 0.078 0.093 0.156 0.281 0.238 0.211 0.106 0.332 0.188 0.359 0.238 0.106 0.161 0.188 0.414 0.239 0.762 0.054 0.426 0.093 0.695 0.121 0.801 0.027 0.078 0.199 0.305 0.519 0.68 0.266 0.293 0.465 0.664 0.602 1.121zm-2.442-5.282-0.039-0.039c-0.027 0.133-0.054 0.239-0.082 0.317l-0.121 1.121v0.082l0.121-0.242c0.293-0.106 0.469-0.254 0.52-0.442 0.027-0.133-0.106-0.398-0.399-0.797zm-1.961 1.719c0.215 0.32 0.336 0.508 0.36 0.563l0.082-1.403c-0.055-0.187-0.188-0.652-0.403-1.398-0.238-0.641-0.57-0.883-1-0.719-0.105 0.051-0.199 0.184-0.277 0.399-0.055 0.265-0.109 0.453-0.16 0.558-0.109 0.16-0.188 0.293-0.242 0.403-0.106 0.16-0.133 0.292-0.078 0.398l0.32 0.121c0.133 0.051 0.332 0.184 0.598 0.398 0.32 0.188 0.586 0.415 0.8 0.68zm-2.64-8.078v3.52c0.48-0.481 1-0.883 1.562-1.2 0.317-0.136 0.492-0.214 0.52-0.242 0.105-0.105 0.094-0.226-0.043-0.359-0.051-0.082-0.172-0.199-0.36-0.36l-0.96-1.441c-0.157-0.078-0.399-0.051-0.719 0.082z" inkscape:connector-curvature="0"/>
      <path id="path30" style="fill-rule:evenodd;fill:#a28a5b" d="m25.57 8.4v-1.558c0-0.293 0.012-0.762 0.039-1.403 0.028-0.585 0.016-1.05-0.039-1.398-0.082 0.238-0.121 0.508-0.121 0.801l-0.039 0.199-0.082 0.481-0.398 7.878v0.122c0.027 0.238 0.105 0.585 0.238 1.039-0.051-1.602-0.051-2.786 0-3.559l0.16-1.203 0.121-1.117c0.028-0.082 0.051-0.188 0.082-0.321l0.039 0.039z" inkscape:connector-curvature="0"/>
      <path id="path32" style="fill-rule:evenodd;fill:#d4bb87" d="m14.449 12.92c-0.64 0.16-1.133 0.238-1.48 0.238h-1.438c-0.562 0.028-1.082 0.082-1.562 0.16 0 0.055 0.015 0.094 0.043 0.121 0.078 0.106 0.25 0.266 0.519 0.481l2.559-0.359 0.879-0.122c0.48-0.05 1.215-0.16 2.199-0.32 0.27-0.027 0.684-0.027 1.242 0l0.52-0.078h0.879l1.961-0.281-0.122-0.078v-0.082c-0.878-0.055-1.625-0.039-2.238 0.039-0.293 0.054-0.719 0.082-1.281 0.082l-1.481 0.039c-0.265 0-0.664 0.054-1.199 0.16zm-5.84 5.922-0.757-0.32c-0.188-0.083-0.254-0.176-0.204-0.282l-1.796 0.199c0.183 0.106 0.41 0.243 0.679 0.403 0.321 0.238 0.614 0.383 0.879 0.437 0.559 0.055 0.918 0.133 1.078 0.243l2.922-0.243-1.16-0.039h-0.082c-0.106-0.027-0.332-0.039-0.68-0.039l-0.359-0.082-0.199-0.16-0.321-0.117zm0.039-5.203c-1.253 0.32-1.933 0.496-2.039 0.519l-0.679 0.082-2.801 0.078-0.277 0.043c-0.055 0-0.282-0.043-0.684-0.121l-0.957 0.239c-0.426 0.082-0.801 0.066-1.121-0.04-0.028 0.028-0.055 0.04-0.078 0.04 0 0.253 0.019 0.445 0.058 0.582 0.004 0.019 0.012 0.039 0.02 0.058v0.039c0.078-0.023 0.32-0.039 0.719-0.039l0.121-0.039v0.039c-0.055 0.348 0.359 0.574 1.238 0.68 0.27 0.027 0.562 0.16 0.883 0.402 0.347 0.293 0.597 0.504 0.758 0.641 0.242 0.183 0.546 0.426 0.921 0.719l2.079-0.282h0.043c0.031-0.011 0.058-0.039 0.078-0.078 0.054-0.16-0.028-0.269-0.239-0.32-0.347-0.106-0.601-0.199-0.761-0.281-0.719-0.453-1.266-0.735-1.641-0.84l-0.598-0.121c-0.16 0-0.375-0.039-0.64-0.117-0.321-0.083-0.453-0.161-0.403-0.243 0.028-0.054 0.204-0.078 0.52-0.078l0.363-0.082c0.184-0.105 0.371-0.16 0.559-0.16l1.039-0.16 0.16-0.039c0.074-0.008 0.156-0.024 0.242-0.039l2.719-0.442c0.215-0.027 0.441-0.066 0.68-0.121l0.121-0.039c-0.028 0-0.067-0.012-0.121-0.039-0.16-0.133-0.254-0.266-0.282-0.398v-0.043z" inkscape:connector-curvature="0"/>
      <path id="path34" style="fill-rule:evenodd;fill:#a68e59" d="m10.09 4.639h0.039c0.348 0.054 0.574 0.121 0.68 0.203 0.187 0.211 0.347 0.359 0.48 0.437 0.188 0.11 0.453 0.121 0.801 0.043 0.348-0.082 0.586-0.203 0.719-0.363l0.519-0.316c0.137-0.028 0.309-0.094 0.524-0.204 0.132-0.078 0.304-0.183 0.519-0.316 0.399-0.16 0.652-0.297 0.758-0.402 0.215-0.184 0.215-0.414 0-0.68-0.238-0.266-1.067-0.293-2.481-0.082l-0.039 0.602c-0.398 0.054-0.988 0.039-1.761-0.039-0.266-0.028-0.493-0.043-0.68-0.043-0.023 0.347-0.051 0.734-0.078 1.16zm-0.16 5.402c0.105 0 0.226 0.012 0.359 0.039 0.348 0.051 0.856 0.172 1.52 0.359l0.601-0.597c0.028-0.16-0.015-0.414-0.121-0.762-0.371-0.082-0.851-0.332-1.437-0.758-0.321-0.242-0.618-0.441-0.883-0.601-0.028 0.851-0.028 1.398 0 1.64-0.024 0.239-0.039 0.465-0.039 0.68zm-6.801 4.277 2.801-0.078-0.602-0.84c-0.133-0.187-0.226-0.281-0.277-0.281-0.028-0.027-0.133-0.027-0.321 0-0.695 0.082-1.226 0.481-1.601 1.199zm5.402-6.796c-0.16 0.05-0.297 0.132-0.402 0.238l-0.961 0.918c0.055 0.027 0.215 0.094 0.48 0.203 0.243 0.105 0.403 0.226 0.481 0.359-0.504 0-1.078 0.199-1.719 0.602-0.668 0.426-1.027 0.797-1.082 1.117 0.856 0.133 1.934-0.078 3.242-0.641-0.027-0.796-0.039-1.73-0.039-2.796zm0.039-3.961c-0.375 0.05-0.746 0.132-1.121 0.238-0.453 0.187-0.785 0.308-1 0.359-0.265 0.028-0.465 0.055-0.597 0.082-0.243 0.028-0.43 0.094-0.563 0.199 0.563 0.215 1.359 0.293 2.402 0.243 0.321 0 0.598-0.016 0.84-0.043 0-0.371 0.012-0.731 0.039-1.078zm5.879 9.359c0.535-0.106 0.934-0.16 1.199-0.16l1.481-0.039-0.359-0.321c-0.106-0.105-0.348-0.336-0.719-0.679-0.321-0.321-0.574-0.508-0.762-0.563-0.133-0.051-0.305-0.094-0.519-0.117h-0.559c-0.32 0-0.508 0.012-0.559 0.039-0.054 0.027-0.027 0.145 0.078 0.359 0.348 0.614 0.586 1.083 0.719 1.403v0.078zm6.52-7.359v-1.68c-0.239 0-0.399 0.027-0.481 0.078-0.105 0.027-0.238 0.148-0.398 0.363-0.133 0.211-0.188 0.387-0.16 0.52 0 0.183 0.132 0.332 0.398 0.437 0.293 0.16 0.453 0.321 0.481 0.481 0.054 0.265-0.145 0.492-0.598 0.679-0.348 0.161-0.652 0.094-0.922-0.199-0.266-0.347-0.519-0.48-0.758-0.398-0.187 0.051-0.574 0.238-1.16 0.558-0.48 0.266-0.894 0.426-1.242 0.481 0.16 0.215 0.547 0.359 1.16 0.441 0.723 0.078 1.176 0.172 1.359 0.282 0.43 0.21 0.684 0.359 0.762 0.437 0.051 0.027 0.281 0.27 0.68 0.719 0.265 0.269 0.519 0.429 0.762 0.48h0.039l0.078-2.359v-1.32zm-7.641 4.8 0.801-0.121c0-0.32-0.067-0.558-0.199-0.718-0.16-0.215-0.387-0.227-0.68-0.043-0.133 0.082-0.199 0.226-0.199 0.441 0 0.238 0.094 0.387 0.277 0.441zm-9.039-2.121c0.375-0.215 0.68-0.347 0.922-0.398l0.199-0.684c-0.105 0-0.281-0.051-0.519-0.16-0.266-0.133-0.453-0.211-0.563-0.238h-0.68l-0.039 0.281c-0.507 0.078-0.972 0-1.398-0.242-0.242-0.133-0.508-0.348-0.801-0.641-0.215-0.265-0.398-0.398-0.558-0.398-0.215 0-0.414 0.066-0.602 0.199l-0.039 2.16c0.238-0.211 0.547-0.347 0.918-0.398 0.426-0.082 0.723-0.028 0.883 0.16 0.133 0.133 0.172 0.371 0.117 0.719-0.106 0.425-0.145 0.679-0.117 0.761 0.183 0.024 0.426-0.043 0.718-0.203 0.188-0.078 0.426-0.211 0.719-0.398 0.188-0.106 0.469-0.281 0.84-0.52z" inkscape:connector-curvature="0"/>
      <path id="path36" style="fill-rule:evenodd;fill:#b0965f" d="m10.211 2.4c-0.027 0.266-0.043 0.625-0.043 1.079 0.187 0 0.414 0.015 0.684 0.043 0.773 0.078 1.359 0.093 1.757 0.039l0.039-0.602c1.414-0.211 2.243-0.184 2.481 0.082 0.215 0.266 0.215 0.492 0 0.68-0.106 0.105-0.359 0.242-0.758 0.402-0.215 0.133-0.387 0.238-0.519 0.316-0.215 0.11-0.387 0.176-0.52 0.204l-0.523 0.316c-0.133 0.16-0.371 0.281-0.719 0.359-0.348 0.082-0.613 0.067-0.801-0.039-0.133-0.082-0.293-0.226-0.48-0.441-0.106-0.078-0.332-0.145-0.68-0.199h-0.039v0.402c0.375 0 0.68 0.066 0.922 0.199 0.293 0.133 0.664 0.239 1.117 0.321l1.199 0.199-1.918 0.281 0.399-0.043h0.082l0.238 0.082-0.52 0.039 0.719-0.039c0.402 0 0.774-0.039 1.121-0.121 0.215-0.051 0.801-0.371 1.762-0.961l1.437-0.84h-0.117l0.637-0.398 0.082-0.039c-0.027-0.16 0.039-0.321 0.199-0.481 0.082-0.082 0.199-0.199 0.36-0.359 0.187-0.242 0.253-0.574 0.203-1-0.453-0.215-1.043-0.227-1.762-0.043-0.773 0.242-1.348 0.387-1.719 0.441-0.429 0.055-1.734 0.082-3.922 0.082l-0.398 0.039zm0.957 3.442c-0.184-0.11-0.559-0.254-1.117-0.442v0.161c0.183 0.05 0.398 0.132 0.64 0.238l0.477 0.043zm-1.117 0.156c-0.028 0.668-0.055 1.242-0.082 1.723 0.265 0.16 0.562 0.359 0.883 0.597 0.586 0.43 1.066 0.68 1.437 0.762 0.106 0.348 0.149 0.598 0.121 0.758l-0.601 0.601c-0.664-0.187-1.172-0.308-1.52-0.359-0.133-0.027-0.254-0.039-0.359-0.039-0.106 1.84-0.094 2.934 0.039 3.277 0.48-0.078 1-0.132 1.562-0.16h1.438c0.347 0 0.84-0.078 1.48-0.238v-0.082c-0.133-0.32-0.371-0.785-0.719-1.399-0.105-0.214-0.132-0.332-0.082-0.359 0.055-0.027 0.243-0.039 0.563-0.039h0.559c0.214 0.023 0.386 0.066 0.519 0.117 0.188 0.055 0.441 0.242 0.762 0.563 0.371 0.343 0.613 0.57 0.719 0.679l0.359 0.321c0.559 0 0.988-0.028 1.281-0.082 0.613-0.078 1.36-0.094 2.238-0.039v0.078l0.04-0.321-0.04 0.204c-0.078-0.133-0.386-0.454-0.918-0.961l-0.32-0.399c-0.16-0.16-0.398-0.336-0.719-0.519-0.214-0.137-0.535-0.348-0.961-0.641l1.403 0.598-2.922-1.36c-0.16-0.105-0.559-0.371-1.199-0.8l-0.282-0.2c-0.265-0.16-0.679-0.386-1.238-0.679-0.562-0.348-0.988-0.575-1.281-0.68l-2.16-0.922zm10.918-5.078v0.519l-1.559 1.403c-0.109 0.105-0.535 0.465-1.281 1.078-0.32 0.32-0.574 0.535-0.758 0.641l-2.402 1.878-0.039 0.043c0 0.028-0.012 0.051-0.039 0.079-0.161 0.265-0.215 0.492-0.161 0.679l0.04 0.16v-0.16l3.519 2c0.266 0.137 0.492 0.297 0.68 0.481l0.48 0.441c0.535 0.531 0.883 0.84 1.039 0.918l0.242 0.121 0.118-1.961c-0.239-0.054-0.493-0.215-0.758-0.48-0.402-0.453-0.629-0.696-0.68-0.719-0.082-0.082-0.336-0.227-0.762-0.441-0.187-0.106-0.64-0.2-1.359-0.282-0.613-0.078-1-0.226-1.16-0.437 0.348-0.055 0.762-0.215 1.242-0.481 0.586-0.32 0.973-0.507 1.16-0.562 0.239-0.078 0.492 0.055 0.758 0.402 0.266 0.293 0.574 0.36 0.922 0.199 0.449-0.187 0.652-0.414 0.598-0.679-0.028-0.16-0.188-0.321-0.481-0.481-0.266-0.105-0.398-0.254-0.398-0.441-0.028-0.133 0.027-0.305 0.16-0.52 0.16-0.211 0.293-0.332 0.398-0.359 0.082-0.051 0.242-0.078 0.481-0.078v-1.84c0-0.48 0.015-0.883 0.043-1.199h-0.043v0.078zm-12.399 9.398c-1.308 0.563-2.386 0.774-3.242 0.641 0.055-0.32 0.414-0.691 1.082-1.117 0.641-0.403 1.215-0.602 1.719-0.602-0.078-0.133-0.238-0.254-0.481-0.359-0.265-0.106-0.425-0.172-0.48-0.199l0.961-0.922c0.105-0.106 0.242-0.184 0.402-0.238v-2.883c-0.242 0.027-0.519 0.043-0.84 0.043-1.043 0.05-1.839-0.028-2.402-0.243 0.133-0.105 0.32-0.171 0.563-0.199 0.132-0.027 0.332-0.054 0.597-0.082 0.215-0.051 0.547-0.172 1-0.359 0.375-0.106 0.746-0.184 1.121-0.238v-0.321h-0.039c-0.562 0.051-1.027 0.16-1.402 0.321-0.184 0.078-0.492 0.121-0.918 0.121l-0.402-0.121-0.239-0.161-0.16-0.078-0.398 0.078c-0.617 0.028-1.082 0.055-1.403 0.082-0.746 0.079-1.171 0.2-1.281 0.36l-0.117 0.238c0.16 0 0.598 0.121 1.32 0.359 0.184 0.055 0.598 0.243 1.239 0.559 0.265 0.082 0.585 0.242 0.96 0.481 0.692 0.242 1.188 0.468 1.481 0.679l-0.481 0.203 0.2 0.039h0.718c0.297-0.187 0.454-0.265 0.481-0.242-0.106 0.188-0.277 0.348-0.52 0.481-0.214 0.136-0.531 0.375-0.961 0.722-0.824 0.559-1.437 1-1.839 1.321l-0.278 0.238-0.601 0.68c-0.348 0.453-0.641 0.828-0.879 1.121l1.16-1.121c0.211-0.215 0.492-0.559 0.84-1.039 0.133-0.161 0.414-0.336 0.84-0.52l0.558-0.359c0.293-0.215 0.496-0.336 0.602-0.36 0 0.051-0.172 0.293-0.52 0.719l-1.082 0.918c-0.48 0.453-1.094 1.188-1.84 2.199-0.398 0.641-0.718 1.11-0.961 1.403l-0.48 0.519c-0.156 0.266-0.305 0.453-0.438 0.559-0.425 0.375-0.718 0.586-0.878 0.64-0.348 0.055-0.602 0.106-0.762 0.16 0.32 0.106 0.695 0.122 1.121 0.04l0.957-0.239c0.402 0.078 0.629 0.121 0.684 0.121l0.277-0.043c0.375-0.718 0.906-1.117 1.601-1.199 0.188-0.027 0.293-0.027 0.321 0 0.051 0 0.144 0.094 0.277 0.281l0.602 0.84 0.679-0.082c0.106-0.027 0.786-0.199 2.039-0.519-0.05-0.266-0.078-1.371-0.078-3.321zm-8.519 3.68c-0.028 0.109-0.039 0.215-0.039 0.32-0.028 0.293-0.008 0.539 0.058 0.743-0.039-0.137-0.058-0.329-0.058-0.582v-0.079l0.039-0.402zm13.277-3.637c-0.183-0.054-0.277-0.203-0.277-0.441 0-0.215 0.066-0.359 0.199-0.441 0.293-0.184 0.52-0.172 0.68 0.043 0.132 0.16 0.199 0.398 0.199 0.718l-0.801 0.121zm-13.078-6.082l-0.082 6.243-0.039 3 0.082-2.481-0.043-0.519c0.16-0.028 0.297-0.028 0.402 0 0.051 0 0.188 0.05 0.399 0.16 0.16 0.078 0.308 0.105 0.441 0.078 0.16-0.028 0.399-0.149 0.719-0.36 1.094-0.668 2.082-1.386 2.961-2.16 0.32-0.265 0.828-0.625 1.519-1.082l0.082-0.039c-0.269-0.187-0.64-0.453-1.121-0.801-0.746-0.211-1.293-0.371-1.64-0.476-0.746-0.188-1.321-0.387-1.719-0.602l-1-0.64-0.199-0.121c-0.16-0.079-0.414-0.145-0.762-0.2zm5.68 1.762c-0.907-0.613-1.614-1.043-2.121-1.281l-0.758-0.281 1.277 0.8 0.402 0.16c0.188 0.11 0.481 0.282 0.879 0.52l0.321 0.082zm-1.641 2.199c-0.371 0.239-0.652 0.414-0.84 0.52-0.293 0.187-0.531 0.32-0.719 0.398-0.292 0.16-0.535 0.227-0.718 0.203-0.028-0.082 0.011-0.336 0.117-0.761 0.055-0.348 0.016-0.586-0.117-0.719-0.16-0.188-0.457-0.242-0.883-0.16-0.371 0.054-0.68 0.187-0.918 0.398l0.039-2.16c0.188-0.133 0.387-0.199 0.602-0.199 0.16 0 0.343 0.133 0.558 0.402 0.293 0.293 0.559 0.504 0.801 0.637 0.426 0.242 0.891 0.32 1.398 0.242l0.039-0.281h0.68c0.11 0.027 0.297 0.105 0.563 0.242 0.238 0.105 0.414 0.16 0.519 0.16l-0.199 0.68c-0.242 0.051-0.547 0.183-0.922 0.398zm-2.48-4.039 1.043 0.238-0.641-0.32v0.16l-0.402-0.078z" inkscape:connector-curvature="0"/>
      <path id="path38" style="fill-rule:evenodd;fill:#9d8655" d="m11.41 6.041-0.242-0.199-0.477-0.043 0.278 0.199 0.562 0.121 0.078 0.039c0.266 0.055 0.668 0.227 1.2 0.52 0.375 0.16 0.789 0.121 1.242-0.117 0.238-0.161 0.625-0.387 1.16-0.68-0.027 0.105-0.121 0.305-0.281 0.598l0.039-0.04 2.402-1.878c0.184-0.11 0.438-0.321 0.758-0.641 0.746-0.613 1.172-0.973 1.281-1.082l1.559-1.399v-0.519l-0.039 0.039-3.239 2.762c-0.429 0.32-0.773 0.465-1.043 0.437l-1.437 0.84c-0.961 0.59-1.547 0.91-1.762 0.961-0.347 0.082-0.719 0.121-1.121 0.121l-0.719 0.039 0.52-0.039-0.238-0.082h-0.082l-0.399 0.043zm-1.199-3.641 0.398-0.039c2.188 0 3.493-0.027 3.922-0.082 0.371-0.054 0.946-0.199 1.719-0.441 0.719-0.184 1.305-0.172 1.758 0.043 0.054 0.426-0.012 0.758-0.199 1-0.161 0.16-0.282 0.277-0.36 0.359-0.16 0.16-0.226 0.321-0.199 0.481 0.371-0.242 0.801-0.574 1.281-1l0.559-0.602c0.426-0.426 0.598-0.879 0.519-1.359-0.214-0.106-0.679-0.094-1.398 0.039l-1.481 0.281c-0.668 0.027-1.175 0.055-1.519 0.082-0.242 0.024-0.551 0.09-0.922 0.199-0.48 0.161-0.801 0.254-0.961 0.282-0.664 0.156-1.707 0.304-3.117 0.437v0.039 0.281zm10.48 9.961 0.079-1.121-0.04-0.039-0.242-0.121c-0.156-0.082-0.504-0.387-1.039-0.922l-0.48-0.437c-0.184-0.188-0.414-0.348-0.68-0.481l-3.519-2v0.16c0.132 0.266 0.546 0.508 1.242 0.719 0.316 0.106 0.718 0.375 1.199 0.801 1.066 0.934 1.707 1.508 1.918 1.719l-1.399-0.598c0.426 0.293 0.747 0.504 0.958 0.637 0.32 0.187 0.562 0.363 0.722 0.519l0.32 0.403c0.532 0.507 0.84 0.824 0.918 0.961l0.043-0.2zm-10.64-6.363 2.16 0.922c0.293 0.105 0.719 0.332 1.277 0.68 0.563 0.293 0.973 0.519 1.242 0.679l0.282 0.2-0.364-0.278-3.48-2 0.043 0.039-0.602-0.281-0.558-0.078v0.117zm-7.84-1.918 0.117-0.238c0.11-0.16 0.535-0.281 1.281-0.363 0.321-0.024 0.786-0.051 1.403-0.079l0.398-0.082 0.16 0.082 0.239 0.161 0.402 0.117c0.426 0 0.734-0.039 0.918-0.117 0.375-0.161 0.84-0.27 1.402-0.321h0.039c0.028-0.347 0.051-0.679 0.078-1-0.796 0.082-1.679 0.16-2.636 0.239l-2.922 0.281c-0.613 0-1.133 0.027-1.559 0.082-0.801 0.105-1.082 0.344-0.84 0.719 0.079 0.132 0.25 0.253 0.52 0.359 0.133 0.078 0.332 0.172 0.598 0.281l0.402 0.078v-0.16l-0.082-0.039h0.082zm-2.082 9.52 0.601-0.602c0.161-0.453 0.254-0.73 0.282-0.84 0.183-0.691 0.625-1.293 1.316-1.797 1.281-0.933 2.11-1.496 2.481-1.683 0.402-0.317 1.015-0.758 1.839-1.317 0.43-0.347 0.75-0.586 0.961-0.722 0.243-0.133 0.414-0.293 0.52-0.481-0.027-0.023-0.184 0.055-0.481 0.242h-0.718l-0.2-0.039c-0.375-0.109-0.64-0.214-0.8-0.32l-0.321-0.082c-0.398-0.238-0.691-0.414-0.879-0.52l-0.402-0.16c0.473 0.368 0.781 0.582 0.922 0.641-0.27-0.109-0.711-0.242-1.32-0.398-0.586-0.133-1.028-0.282-1.321-0.442l-0.718-0.359-0.563-0.082-0.117-0.039 1 0.64c0.398 0.215 0.973 0.414 1.719 0.602 0.347 0.105 0.894 0.265 1.64 0.48 0.481 0.344 0.852 0.614 1.121 0.797l-0.082 0.043c-0.691 0.453-1.199 0.813-1.519 1.078-0.879 0.774-1.867 1.492-2.961 2.16-0.32 0.215-0.559 0.332-0.719 0.36-0.133 0.027-0.281 0-0.441-0.078-0.211-0.106-0.348-0.16-0.399-0.16-0.105-0.028-0.242-0.028-0.402 0l0.043 0.519-0.082 2.481v0.078z" inkscape:connector-curvature="0"/>
      <path id="path40" style="fill-rule:evenodd;fill:#5e5032" d="m19.09 2.119-0.559 0.602-0.203 0.32c0.11-0.16 0.481-0.48 1.121-0.961 0.239-0.187 0.492-0.465 0.762-0.84 0.133-0.187 0.383-0.414 0.758-0.679v-0.122l-1.879 1.68zm-2.52 6.68-1.558-0.918c-0.778-0.508-1.227-0.789-1.364-0.84-0.16-0.082-0.398-0.16-0.718-0.242-0.293-0.078-0.52-0.16-0.68-0.238 0.105 0.16 0.359 0.359 0.762 0.597 0.426 0.242 0.73 0.375 0.918 0.403l3.879 2.32c-0.161-0.106-0.332-0.254-0.52-0.442-0.293-0.32-0.531-0.531-0.719-0.64zm-15.558-4.32 0.199 0.121 0.117 0.039 0.563 0.082c0.132 0.027 0.32 0.039 0.558 0.039-0.32-0.028-0.664-0.133-1.039-0.321-0.187-0.105-0.574-0.359-1.16-0.757h-0.039v0.199h0.039c0.105 0.078 0.359 0.277 0.762 0.598zm2.039 6.242c0.238-0.293 0.531-0.668 0.879-1.121l-1.52 1.398c-0.187 0.215-0.308 0.457-0.359 0.723l1-1z" inkscape:connector-curvature="0"/>
      <path id="path42" style="fill-rule:evenodd;fill:#5c4e31" d="m14.289 16.721 0.039-0.082c0.055-0.078 0.27-0.145 0.641-0.2 0.093-0.023 0.219-0.035 0.383-0.039h-0.543c-0.348 0.106-0.598 0.161-0.758 0.161-0.055 0.16 0.011 0.293 0.199 0.398 0.051 0.055 0.105 0.094 0.16 0.121h0.078c-0.05-0.055-0.09-0.094-0.117-0.121-0.055-0.078-0.082-0.16-0.082-0.238z" inkscape:connector-curvature="0"/>
      <path id="path44" style="fill-rule:evenodd;fill:#e1c88f" d="m5.371 18.522c0.266 0.183 0.547 0.343 0.84 0.476 0.238 0.188 0.453 0.32 0.641 0.402 0.293 0.161 0.691 0.215 1.199 0.161 0.105 0 0.254-0.016 0.437-0.039-0.16-0.11-0.519-0.188-1.078-0.243-0.265-0.054-0.558-0.199-0.879-0.437-0.269-0.16-0.496-0.297-0.679-0.403l-0.481 0.083zm-5.281-3.364c0.105 0.137 0.187 0.227 0.238 0.281l1.203 0.52c0.453 0.215 0.813 0.414 1.078 0.602 0.453 0.347 0.786 0.586 1 0.718 0.215 0.133 0.414 0.254 0.602 0.36l0.519-0.078c-0.375-0.293-0.679-0.536-0.921-0.719-0.161-0.137-0.414-0.348-0.758-0.641-0.321-0.242-0.613-0.375-0.883-0.402-0.879-0.106-1.293-0.332-1.238-0.68v-0.039l-0.121 0.039c-0.399 0-0.641 0.016-0.719 0.039z" inkscape:connector-curvature="0"/>
      <path id="path46" style="fill-rule:evenodd;fill:#c5aa72" d="m3.051 10.721-1 1-1.321 1.277-0.64 0.641-0.039 0.359-0.039 0.402v0.079c0.023 0 0.05-0.012 0.078-0.04 0.16-0.05 0.414-0.105 0.762-0.16 0.16-0.054 0.453-0.265 0.878-0.64 0.133-0.106 0.282-0.293 0.438-0.559l0.48-0.519c0.243-0.293 0.563-0.762 0.961-1.403 0.746-1.011 1.36-1.746 1.84-2.199l1.082-0.918c0.348-0.426 0.52-0.668 0.52-0.719-0.106 0.024-0.309 0.145-0.602 0.36l-0.558 0.359c-0.426 0.184-0.707 0.359-0.84 0.52-0.348 0.48-0.629 0.824-0.84 1.039l-1.16 1.121z" inkscape:connector-curvature="0"/>
      <path id="path48" style="fill-rule:evenodd;fill:#cfb680" d="m10.051 5.4c0.558 0.188 0.933 0.332 1.117 0.442l0.242 0.199 1.918-0.281-1.199-0.199c-0.453-0.082-0.824-0.188-1.117-0.321-0.242-0.133-0.547-0.199-0.922-0.199-0.028 0.106-0.039 0.227-0.039 0.359zm-7-0.921 0.758 0.281c0.507 0.242 1.214 0.668 2.121 1.281 0.16 0.106 0.425 0.215 0.8 0.32l0.481-0.203c-0.293-0.211-0.789-0.437-1.481-0.679-0.375-0.239-0.695-0.399-0.96-0.481-0.641-0.32-1.055-0.508-1.239-0.559-0.722-0.242-1.16-0.359-1.32-0.359h-0.082l0.082 0.039 0.641 0.32 0.199 0.04z" inkscape:connector-curvature="0"/>
    </g>
  </g>
<metadata><rdf:RDF><cc:Work><dc:format>image/svg+xml</dc:format><dc:type rdf:resource="http://purl.org/dc/dcmitype/StillImage"/><cc:license rdf:resource="http://creativecommons.org/licenses/publicdomain/"/><dc:publisher><cc:Agent rdf:about="http://openclipart.org/"><dc:title>Openclipart</dc:title></cc:Agent></dc:publisher></cc:Work><cc:License rdf:about="http://creativecommons.org/licenses/publicdomain/"><cc:permits rdf:resource="http://creativecommons.org/ns#Reproduction"/><cc:permits rdf:resource="http://creativecommons.org/ns#Distribution"/><cc:permits rdf:resource="http://creativecommons.org/ns#DerivativeWorks"/></cc:License></rdf:RDF></metadata></svg>
